<?xml version="1.0" standalone="no"?>
<!DOCTYPE svg PUBLIC "-//W3C//DTD SVG 20010904//EN"
 "http://www.w3.org/TR/2001/REC-SVG-20010904/DTD/svg10.dtd">
<svg version="1.0" xmlns="http://www.w3.org/2000/svg"
 width="512.000000pt" height="512.000000pt" viewBox="0 0 512.000000 512.000000"
 preserveAspectRatio="xMidYMid meet">
<metadata>
Created by potrace 1.16, written by Peter Selinger 2001-2019
</metadata>
<g transform="translate(0.000000,512.000000) scale(0.100000,-0.100000)"
fill="#000000" stroke="none">
<path d="M2794 4032 c-17 -11 -22 -35 -13 -59 6 -18 16 -23 43 -23 19 0 38 5
42 11 9 15 115 4 153 -15 31 -17 57 -51 67 -90 l6 -27 -738 1 c-407 0 -749 1
-760 0 -12 0 -55 -26 -95 -57 -68 -54 -77 -57 -157 -69 -157 -23 -272 -105
-339 -242 -38 -75 -38 -77 -41 -218 -4 -139 -5 -143 -28 -159 -14 -9 -45 -47
-69 -86 l-45 -69 0 -119 c0 -80 5 -132 15 -161 11 -31 15 -86 15 -204 0 -176
8 -221 44 -255 43 -40 137 -46 156 -11 8 16 2 28 -35 70 -68 76 -85 117 -85
200 0 70 0 70 25 64 14 -3 36 -3 50 0 l24 6 3 438 3 437 27 50 c57 108 173
187 301 206 34 5 414 9 843 9 704 0 782 2 788 16 8 22 7 67 -2 81 -6 10 -111
13 -448 16 l-439 2 488 3 487 2 2 -62 c3 -111 10 -136 41 -143 12 -3 198 -6
412 -7 389 -3 390 -3 435 -27 103 -55 146 -108 193 -239 l31 -87 3 -502 3
-501 -25 -20 -26 -20 1 -330 c1 -310 0 -332 -18 -369 -26 -50 -66 -87 -122
-112 -44 -20 -62 -21 -848 -21 l-802 0 -50 78 c-27 42 -59 84 -72 92 -19 12
-92 16 -435 20 l-411 5 -44 31 c-23 18 -53 51 -65 75 -21 39 -23 55 -23 206
l0 163 95 0 c52 0 95 4 95 9 0 5 -39 18 -87 30 -90 23 -163 53 -220 91 -49 32
-55 3 -11 -50 33 -42 33 -43 39 -178 11 -230 31 -295 109 -366 85 -77 77 -76
519 -76 l394 0 31 -34 c17 -18 39 -47 49 -65 l18 -31 -105 0 c-57 0 -111 -3
-120 -6 -17 -7 -22 -39 -7 -49 6 -3 441 -5 967 -5 l957 0 52 24 c69 31 128 86
157 144 22 45 23 58 28 377 l5 330 58 5 c36 3 62 11 67 20 6 9 10 224 10 522
0 563 4 531 -68 543 -20 4 -42 8 -48 10 -6 2 -16 28 -23 59 -27 123 -101 215
-221 274 l-74 37 -291 0 c-159 1 -296 2 -302 3 -7 1 -24 24 -38 51 -25 50 -66
91 -91 91 -21 0 -17 -30 12 -79 30 -53 26 -71 -18 -71 -56 0 -59 5 -57 132 1
108 0 119 -25 164 -39 71 -83 98 -170 102 -39 2 -75 8 -80 13 -12 11 -57 12
-72 1z m1522 -939 c-10 -10 -19 5 -10 18 6 11 8 11 12 0 2 -7 1 -15 -2 -18z
m1 -100 c-3 -10 -5 -2 -5 17 0 19 2 27 5 18 2 -10 2 -26 0 -35z m-3402 -160
c5 -94 3 -147 -4 -160 -8 -13 -10 25 -11 146 0 90 2 162 4 160 3 -2 8 -68 11
-146z m3415 -13 c0 -11 -4 -20 -10 -20 -5 0 -10 9 -10 20 0 11 5 20 10 20 6 0
10 -9 10 -20z m-10 -110 c0 -11 -4 -20 -10 -20 -5 0 -10 9 -10 20 0 11 5 20
10 20 6 0 10 -9 10 -20z m10 -74 c0 -11 -19 -15 -25 -6 -3 5 1 10 9 10 9 0 16
-2 16 -4z m-10 -51 c0 -8 -4 -15 -10 -15 -5 0 -10 7 -10 15 0 8 5 15 10 15 6
0 10 -7 10 -15z m10 -140 c0 -14 -4 -25 -10 -25 -5 0 -10 11 -10 25 0 14 5 25
10 25 6 0 10 -11 10 -25z m-13 -142 c-3 -10 -5 -4 -5 12 0 17 2 24 5 18 2 -7
2 -21 0 -30z"/>
<path d="M2107 3953 c-10 -3 -16 -10 -14 -16 5 -16 276 -22 291 -7 21 21 -19
30 -139 29 -66 -1 -128 -3 -138 -6z"/>
<path d="M1992 3938 c7 -20 58 -23 58 -4 0 11 -10 16 -31 16 -20 0 -29 -4 -27
-12z"/>
<path d="M3452 3834 c-9 -6 -13 -18 -9 -28 6 -14 38 -16 311 -16 l304 0 6 -22
c8 -31 150 -159 168 -153 22 9 48 60 48 97 0 43 -31 93 -71 113 -27 15 -79 17
-387 18 -246 2 -360 -1 -370 -9z m782 -69 c17 -26 21 -72 8 -92 -4 -6 -7 6 -7
29 0 32 -6 45 -28 64 -16 13 -35 24 -43 24 -8 0 -13 4 -9 9 9 15 62 -8 79 -34z"/>
<path d="M1139 3726 c-198 -69 -319 -254 -307 -466 2 -41 7 -55 18 -55 12 0
16 19 21 90 4 50 14 110 23 135 42 112 135 211 265 279 86 45 78 52 -20 17z"/>
<path d="M1940 3514 c-41 -18 -84 -56 -112 -102 -30 -49 -13 -51 35 -4 74 72
78 73 434 72 201 -1 319 2 326 9 5 5 7 17 4 25 -6 14 -45 16 -329 16 -266 -1
-329 -3 -358 -16z"/>
<path d="M1233 3473 c-19 -7 -16 -50 3 -57 20 -8 44 11 44 34 0 14 -23 34 -33
29 -1 0 -8 -3 -14 -6z"/>
<path d="M1363 3439 c-49 -31 -77 -82 -68 -127 11 -66 23 -283 24 -459 1 -103
5 -174 11 -178 7 -4 10 107 10 325 l0 331 25 23 c33 31 63 36 204 36 115 0
117 1 171 35 l55 35 -200 0 c-185 0 -202 -2 -232 -21z"/>
<path d="M3320 3450 l-315 -5 30 -20 c27 -19 50 -20 376 -25 331 -5 349 -6
375 -26 69 -51 68 -48 74 -347 5 -271 5 -272 27 -275 34 -5 36 22 31 302 -6
280 -7 285 -76 348 -42 38 -113 60 -175 56 -18 -2 -174 -5 -347 -8z"/>
<path d="M1951 3297 c-8 -11 -11 -86 -9 -273 l3 -259 68 -3 67 -3 -2 273 -3
273 -56 3 c-39 2 -59 -1 -68 -11z"/>
<path d="M2352 3298 c-15 -15 -17 -419 -2 -449 10 -17 23 -19 165 -19 84 0
160 3 169 6 24 9 21 71 -3 84 -11 5 -58 10 -105 10 l-86 0 -2 188 -3 187 -60
3 c-38 2 -65 -2 -73 -10z"/>
<path d="M2763 3293 c-5 -12 17 -63 65 -155 l72 -138 -75 -143 c-41 -79 -75
-151 -75 -161 0 -14 9 -17 63 -14 l62 3 49 94 50 93 39 -78 c55 -110 59 -114
129 -114 52 0 58 2 58 21 0 18 -43 105 -122 246 l-28 51 69 141 c39 78 68 148
64 156 -3 11 -21 15 -58 15 -61 0 -68 -6 -117 -103 l-34 -69 -45 84 -44 83
-58 3 c-47 2 -58 0 -64 -15z"/>
<path d="M3224 3296 c-3 -8 27 -78 66 -155 l72 -140 -41 -68 -41 -68 57 -5 57
-5 41 -76 c22 -43 46 -84 54 -93 23 -27 131 -16 131 14 0 5 -32 69 -71 142
-38 73 -70 140 -71 148 0 8 34 78 76 154 42 76 75 145 72 152 -4 9 -22 14 -54
14 -56 0 -62 -6 -112 -93 -17 -32 -34 -57 -36 -54 -2 2 -21 35 -41 73 l-38 69
-58 3 c-44 2 -59 -1 -63 -12z"/>
<path d="M1422 3288 c-9 -9 -12 -96 -12 -329 0 -313 0 -316 23 -350 12 -19 43
-45 67 -59 44 -24 51 -25 303 -30 l259 -5 29 -33 c36 -40 36 -56 4 -88 -36
-36 -69 -29 -75 15 -4 28 -11 36 -33 42 -45 12 -68 -3 -88 -57 -24 -61 -24
-77 -1 -97 17 -15 74 -17 618 -17 l600 0 44 23 c61 31 83 65 88 136 4 52 2 60
-16 70 -15 8 -170 10 -519 9 l-498 -3 -25 -38 -24 -39 -9 29 c-5 15 -19 39
-31 51 -44 50 -59 52 -315 52 l-240 0 -10 38 c-6 20 -11 117 -11 215 l0 177
105 0 c95 0 105 2 115 21 6 11 10 30 8 42 -3 21 -8 22 -109 25 l-107 3 -6 31
c-14 72 -21 68 137 68 156 0 167 4 167 55 0 17 -5 36 -12 43 -17 17 -409 17
-426 0z m1378 -868 l0 -41 -97 3 c-93 3 -98 4 -101 26 -3 22 -5 22 -168 22
-139 0 -164 2 -164 15 0 13 36 15 265 15 l265 0 0 -40z m-293 -36 c-3 -3 -12
-4 -19 -1 -8 3 -5 6 6 6 11 1 17 -2 13 -5z m298 -54 c-8 -12 -471 -13 -530 -1
-25 6 68 9 248 10 190 1 286 -2 282 -9z"/>
<path d="M724 2951 c-127 -77 -116 -272 19 -326 l37 -15 0 180 c0 196 0 195
-56 161z m16 -45 c0 -17 -14 -29 -23 -20 -8 8 3 34 14 34 5 0 9 -6 9 -14z"/>
<path d="M2212 2784 c-29 -20 -31 -79 -3 -94 12 -6 107 -10 240 -10 211 0 222
1 242 21 15 15 19 28 14 47 -12 50 -23 52 -255 52 -179 0 -219 -3 -238 -16z"/>
<path d="M3234 2741 c-24 -37 -26 -61 -4 -61 15 0 63 78 55 89 -11 19 -24 12
-51 -28z"/>
<path d="M3862 2631 c2 -41 -2 -55 -20 -74 -20 -19 -35 -22 -129 -25 -124 -4
-122 -22 2 -22 122 0 181 39 187 125 3 35 0 40 -20 43 -21 3 -22 0 -20 -47z"/>
<path d="M1836 2601 c-9 -14 434 -23 1013 -19 416 2 535 6 539 16 3 9 -156 12
-772 12 -440 0 -777 -4 -780 -9z"/>
<path d="M1040 2379 c0 -22 66 -101 111 -134 110 -81 199 -100 437 -90 137 6
172 10 172 21 0 11 -33 14 -180 14 -98 0 -203 5 -232 11 -88 18 -172 64 -237
129 -61 61 -71 68 -71 49z"/>
<path d="M3620 2345 c-8 -10 -30 -15 -60 -15 -78 0 -100 -19 -64 -54 12 -13
40 -16 143 -16 115 0 131 -2 155 -21 24 -19 26 -26 26 -99 0 -70 3 -81 20 -90
50 -27 70 8 70 125 0 56 3 64 25 79 31 20 33 58 5 86 -18 18 -33 20 -164 20
-115 0 -146 -3 -156 -15z"/>
<path d="M1900 2065 c0 -10 11 -15 38 -16 l37 -2 -35 -6 -35 -6 0 -160 0 -160
33 -3 32 -3 1 108 1 108 20 -72 c17 -60 25 -72 46 -78 31 -8 36 -2 53 60 l14
50 5 -85 5 -85 35 0 35 0 0 160 0 160 -30 6 -30 7 33 1 c21 1 32 6 32 16 0 11
-12 15 -49 15 l-49 0 -21 -69 c-12 -38 -21 -74 -21 -81 0 -30 -19 6 -39 75
l-23 75 -44 0 c-32 0 -44 -4 -44 -15z"/>
<path d="M2315 2068 c-2 -7 -22 -69 -44 -138 -21 -69 -44 -138 -50 -153 -20
-52 -15 -67 24 -67 29 0 36 4 41 25 6 23 11 25 60 25 48 0 56 -3 66 -25 9 -20
18 -25 50 -25 24 0 38 5 37 13 0 6 -26 89 -57 182 l-57 170 -33 3 c-20 2 -34
-2 -37 -10z m57 -193 l15 -55 -37 0 -37 0 16 55 c9 30 19 55 22 55 3 0 13 -25
21 -55z"/>
<path d="M2452 2053 c3 -25 7 -28 46 -31 l42 -3 0 -155 0 -155 43 3 42 3 3
153 3 152 44 0 c43 0 45 1 45 30 l0 30 -136 0 -135 0 3 -27z"/>
<path d="M2740 1895 l0 -185 40 0 40 0 0 185 0 185 -40 0 -40 0 0 -185z"/>
<path d="M2840 2074 c0 -4 23 -44 51 -90 l52 -84 -52 -84 c-28 -46 -51 -89
-51 -95 0 -6 16 -11 38 -11 35 0 40 4 77 65 22 35 42 64 45 64 3 0 21 -28 40
-62 l35 -62 95 -8 c52 -4 210 -6 350 -5 281 3 284 4 347 70 41 43 53 76 53
149 0 44 -4 59 -14 59 -10 0 -17 -17 -21 -55 -9 -65 -36 -111 -85 -139 -32
-19 -54 -21 -280 -24 -135 -2 -276 1 -314 5 l-68 8 -49 76 -49 76 40 69 c22
38 40 72 40 76 0 5 -15 8 -34 8 -31 0 -37 -5 -64 -51 l-29 -51 -36 51 c-34 47
-40 51 -77 51 -22 0 -40 -3 -40 -6z"/>
<path d="M3146 2071 c-9 -14 10 -57 28 -64 9 -4 28 4 43 17 16 12 36 25 46 29
9 3 17 11 17 17 0 13 -127 14 -134 1z"/>
<path d="M4330 2016 c0 -9 7 -16 16 -16 17 0 14 22 -4 28 -7 2 -12 -3 -12 -12z"/>
<path d="M846 1980 c18 -67 43 -94 117 -125 35 -15 37 -14 37 4 0 13 -9 21
-30 26 -31 7 -70 39 -108 90 -22 29 -23 29 -16 5z"/>
<path d="M3140 1875 c0 -25 1 -26 58 -23 49 3 57 6 57 23 0 17 -8 20 -57 23
-57 3 -58 2 -58 -23z"/>
<path d="M874 1669 c-10 -17 13 -36 27 -22 12 12 4 33 -11 33 -5 0 -12 -5 -16
-11z"/>
<path d="M1107 1664 c-14 -15 -6 -34 14 -34 14 0 19 5 17 17 -3 18 -20 27 -31
17z"/>
<path d="M3299 1630 c-9 -5 -22 -23 -29 -40 -15 -35 0 -84 31 -100 10 -6 120
-10 248 -10 227 0 230 0 257 23 35 31 37 77 4 112 l-23 25 -236 0 c-130 0
-243 -5 -252 -10z m467 -44 c15 -12 17 -18 8 -33 -10 -16 -30 -18 -230 -18
-208 0 -219 1 -222 19 -8 40 21 46 228 46 155 0 200 -3 216 -14z"/>
<path d="M1120 1591 c0 -25 51 -109 92 -152 59 -60 127 -106 196 -132 51 -19
76 -21 241 -19 101 1 185 3 187 4 1 2 4 11 6 22 3 17 -6 18 -157 17 -185 -2
-258 8 -333 45 -63 31 -149 112 -183 173 -23 43 -49 65 -49 42z"/>
<path d="M2493 1523 c130 -2 344 -2 475 0 130 1 23 2 -238 2 -261 0 -368 -1
-237 -2z"/>
<path d="M1891 1331 c-8 -5 -11 -16 -8 -25 5 -12 20 -16 61 -16 57 0 70 7 60
34 -7 18 -88 23 -113 7z"/>
<path d="M3630 1201 c0 -63 2 -69 23 -75 29 -8 96 -8 136 0 l31 7 0 68 0 69
-95 0 -95 0 0 -69z"/>
<path d="M2157 1213 c-12 -11 -8 -31 9 -47 13 -14 56 -16 314 -16 286 0 300 1
310 19 27 52 35 51 -308 51 -175 0 -322 -3 -325 -7z"/>
<path d="M3885 1200 c-4 -7 -3 -16 3 -22 14 -14 45 -2 40 15 -6 16 -34 21 -43
7z"/>
<path d="M2335 1118 c2 -7 13 -46 25 -85 l21 -73 159 0 c182 0 162 -10 206
106 l24 64 -220 0 c-171 0 -218 -3 -215 -12z"/>
<path d="M3250 1122 c0 -5 8 -16 18 -25 20 -19 102 -24 102 -7 0 6 -18 10 -40
10 -27 0 -43 5 -46 15 -6 16 -34 21 -34 7z"/>
<path d="M3045 1095 c-43 -42 -23 -106 37 -121 22 -5 34 0 59 25 25 25 30 37
25 59 -15 60 -79 80 -121 37z"/>
</g>
</svg>