<?xml version="1.0" encoding="UTF-8" standalone="no" ?>
<!DOCTYPE svg PUBLIC "-//W3C//DTD SVG 1.1//EN" "http://www.w3.org/Graphics/SVG/1.1/DTD/svg11.dtd">
<svg xmlns="http://www.w3.org/2000/svg" xmlns:xlink="http://www.w3.org/1999/xlink" version="1.1" width="1080" height="1080" viewBox="0 0 1080 1080" xml:space="preserve">
<desc>Created with Fabric.js 5.2.4</desc>
<defs>
</defs>
<g transform="matrix(1 0 0 1 540 540)" id="a81d19bc-c57b-436c-865c-6e8191339281"  >
</g>
<g transform="matrix(1 0 0 1 540 540)" id="a75feb3d-5919-4d9e-96b4-b67c8587004b"  >
<rect style="stroke: none; stroke-width: 1; stroke-dasharray: none; stroke-linecap: butt; stroke-dashoffset: 0; stroke-linejoin: miter; stroke-miterlimit: 4; fill: rgb(255,255,255); fill-rule: nonzero; opacity: 1; visibility: hidden;" vector-effect="non-scaling-stroke"  x="-540" y="-540" rx="0" ry="0" width="1080" height="1080" />
</g>
<g transform="matrix(0 0 0 0 0 0)"  >
<g style=""   >
</g>
</g>
<g transform="matrix(1 0 0 1 540 540)"  >
<g style="opacity: 1;" vector-effect="non-scaling-stroke"   >
		<g transform="matrix(0.13 0 0 -0.13 12.34 -21.35)"  >
<path style="stroke: none; stroke-width: 1; stroke-dasharray: none; stroke-linecap: butt; stroke-dashoffset: 0; stroke-linejoin: miter; stroke-miterlimit: 4; fill: rgb(255,0,0); fill-rule: nonzero; opacity: 1;" vector-effect="non-scaling-stroke"  transform=" translate(-2590.02, -2659.88)" d="M 2794 4032 C 2777 4021 2772 3997 2781 3973 C 2787 3955 2797 3950 2824 3950 C 2843 3950 2862 3955 2866 3961 C 2875 3976 2981 3965 3019 3946 C 3050 3929 3076 3895 3086 3856 L 3092 3829 L 2354 3830 C 1947 3830 1605 3831 1594 3830 C 1582 3830 1539 3804 1499 3773 C 1431 3719 1422 3716 1342 3704 C 1185 3681 1070 3599 1003 3462 C 965 3387 965 3385 962 3244 C 958 3105 957 3101 934 3085 C 920 3076 889 3038 865 2999 L 820 2930 L 820 2811 C 820 2731 825 2679 835 2650 C 846 2619 850 2564 850 2446 C 850 2270 858 2225 894 2191 C 937 2151 1031 2145 1050 2180 C 1058 2196 1052 2208 1015 2250 C 947 2326 930 2367 930 2450 C 930 2520 930 2520 955 2514 C 969 2511 991 2511 1005 2514 L 1029 2520 L 1032 2958 L 1035 3395 L 1062 3445 C 1119 3553 1235 3632 1363 3651 C 1397 3656 1777 3660 2206 3660 C 2910 3660 2988 3662 2994 3676 C 3002 3698 3001 3743 2992 3757 C 2986 3767 2881 3770 2544 3773 L 2105 3775 L 2593 3778 L 3080 3780 L 3082 3718 C 3085 3607 3092 3582 3123 3575 C 3135 3572 3321 3569 3535 3568 C 3924 3565 3925 3565 3970 3541 C 4073 3486 4116 3433 4163 3302 L 4194 3215 L 4197 2713 L 4200 2212 L 4175 2192 L 4149 2172 L 4150 1842 C 4151 1532 4150 1510 4132 1473 C 4106 1423 4066 1386 4010 1361 C 3966 1341 3948 1340 3162 1340 L 2360 1340 L 2310 1418 C 2283 1460 2251 1502 2238 1510 C 2219 1522 2146 1526 1803 1530 L 1392 1535 L 1348 1566 C 1325 1584 1295 1617 1283 1641 C 1262 1680 1260 1696 1260 1847 L 1260 2010 L 1355 2010 C 1407 2010 1450 2014 1450 2019 C 1450 2024 1411 2037 1363 2049 C 1273 2072 1200 2102 1143 2140 C 1094 2172 1088 2143 1132 2090 C 1165 2048 1165 2047 1171 1912 C 1182 1682 1202 1617 1280 1546 C 1365 1469 1357 1470 1799 1470 L 2193 1470 L 2224 1436 C 2241 1418 2263 1389 2273 1371 L 2291 1340 L 2186 1340 C 2129 1340 2075 1337 2066 1334 C 2049 1327 2044 1295 2059 1285 C 2065 1282 2500 1280 3026 1280 L 3983 1280 L 4035 1304 C 4104 1335 4163 1390 4192 1448 C 4214 1493 4215 1506 4220 1825 L 4225 2155 L 4283 2160 C 4319 2163 4345 2171 4350 2180 C 4356 2189 4360 2404 4360 2702 C 4360 3265 4364 3233 4292 3245 C 4272 3249 4250 3253 4244 3255 C 4238 3257 4228 3283 4221 3314 C 4194 3437 4120 3529 4000 3588 L 3926 3625 L 3635 3625 C 3476 3626 3339 3627 3333 3628 C 3326 3629 3309 3652 3295 3679 C 3270 3729 3229 3770 3204 3770 C 3183 3770 3187 3740 3216 3691 C 3246 3638 3242 3620 3198 3620 C 3142 3620 3139 3625 3141 3752 C 3142 3860 3141 3871 3116 3916 C 3077 3987 3033 4014 2946 4018 C 2907 4020 2871 4026 2866 4031 C 2854 4042 2809 4043 2794 4032 z M 4316 3093 C 4306 3083 4297 3098 4306 3111 C 4312 3122 4314 3122 4318 3111 C 4320 3104 4319 3096 4316 3093 z M 4317 2993 C 4314 2983 4312 2991 4312 3010 C 4312 3029 4314 3037 4317 3028 C 4319 3018 4319 3002 4317 2993 z M 915 2833 C 920 2739 918 2686 911 2673 C 903 2660 901 2698 900 2819 C 900 2909 902 2981 904 2979 C 907 2977 912 2911 915 2833 z M 4330 2820 C 4330 2809 4326 2800 4320 2800 C 4315 2800 4310 2809 4310 2820 C 4310 2831 4315 2840 4320 2840 C 4326 2840 4330 2831 4330 2820 z M 4320 2710 C 4320 2699 4316 2690 4310 2690 C 4305 2690 4300 2699 4300 2710 C 4300 2721 4305 2730 4310 2730 C 4316 2730 4320 2721 4320 2710 z M 4330 2636 C 4330 2625 4311 2621 4305 2630 C 4302 2635 4306 2640 4314 2640 C 4323 2640 4330 2638 4330 2636 z M 4320 2585 C 4320 2577 4316 2570 4310 2570 C 4305 2570 4300 2577 4300 2585 C 4300 2593 4305 2600 4310 2600 C 4316 2600 4320 2593 4320 2585 z M 4330 2445 C 4330 2431 4326 2420 4320 2420 C 4315 2420 4310 2431 4310 2445 C 4310 2459 4315 2470 4320 2470 C 4326 2470 4330 2459 4330 2445 z M 4317 2303 C 4314 2293 4312 2299 4312 2315 C 4312 2332 4314 2339 4317 2333 C 4319 2326 4319 2312 4317 2303 z" stroke-linecap="round" />
</g>
		<g transform="matrix(0.13 0 0 -0.13 -34.2 -192.06)"  >
<path style="stroke: none; stroke-width: 1; stroke-dasharray: none; stroke-linecap: butt; stroke-dashoffset: 0; stroke-linejoin: miter; stroke-miterlimit: 4; fill: rgb(255,0,0); fill-rule: nonzero; opacity: 1;" vector-effect="non-scaling-stroke"  transform=" translate(-2240.97, -3940.23)" d="M 2107 3953 C 2097 3950 2091 3943 2093 3937 C 2098 3921 2369 3915 2384 3930 C 2405 3951 2365 3960 2245 3959 C 2179 3958 2117 3956 2107 3953 z" stroke-linecap="round" />
</g>
		<g transform="matrix(0.13 0 0 -0.13 -63.55 -191.45)"  >
<path style="stroke: none; stroke-width: 1; stroke-dasharray: none; stroke-linecap: butt; stroke-dashoffset: 0; stroke-linejoin: miter; stroke-miterlimit: 4; fill: rgb(255,0,0); fill-rule: nonzero; opacity: 1;" vector-effect="non-scaling-stroke"  transform=" translate(-2020.86, -3935.63)" d="M 1992 3938 C 1999 3918 2050 3915 2050 3934 C 2050 3945 2040 3950 2019 3950 C 1999 3950 1990 3946 1992 3938 z" stroke-linecap="round" />
</g>
		<g transform="matrix(0.13 0 0 -0.13 181.77 -163.92)"  >
<path style="stroke: none; stroke-width: 1; stroke-dasharray: none; stroke-linecap: butt; stroke-dashoffset: 0; stroke-linejoin: miter; stroke-miterlimit: 4; fill: rgb(255,0,0); fill-rule: nonzero; opacity: 1;" vector-effect="non-scaling-stroke"  transform=" translate(-3860.72, -3729.2)" d="M 3452 3834 C 3443 3828 3439 3816 3443 3806 C 3449 3792 3481 3790 3754 3790 L 4058 3790 L 4064 3768 C 4072 3737 4214 3609 4232 3615 C 4254 3624 4280 3675 4280 3712 C 4280 3755 4249 3805 4209 3825 C 4182 3840 4130 3842 3822 3843 C 3576 3845 3462 3842 3452 3834 z M 4234 3765 C 4251 3739 4255 3693 4242 3673 C 4238 3667 4235 3679 4235 3702 C 4235 3734 4229 3747 4207 3766 C 4191 3779 4172 3790 4164 3790 C 4156 3790 4151 3794 4155 3799 C 4164 3814 4217 3791 4234 3765 z" stroke-linecap="round" />
</g>
		<g transform="matrix(0.13 0 0 -0.13 -196.36 -130.24)"  >
<path style="stroke: none; stroke-width: 1; stroke-dasharray: none; stroke-linecap: butt; stroke-dashoffset: 0; stroke-linejoin: miter; stroke-miterlimit: 4; fill: rgb(255,0,0); fill-rule: nonzero; opacity: 1;" vector-effect="non-scaling-stroke"  transform=" translate(-1024.79, -3476.59)" d="M 1139 3726 C 941 3657 820 3472 832 3260 C 834 3219 839 3205 850 3205 C 862 3205 866 3224 871 3295 C 875 3345 885 3405 894 3430 C 936 3542 1029 3641 1159 3709 C 1245 3754 1237 3761 1139 3726 z" stroke-linecap="round" />
</g>
		<g transform="matrix(0.13 0 0 -0.13 -36.9 -126.96)"  >
<path style="stroke: none; stroke-width: 1; stroke-dasharray: none; stroke-linecap: butt; stroke-dashoffset: 0; stroke-linejoin: miter; stroke-miterlimit: 4; fill: rgb(255,0,0); fill-rule: nonzero; opacity: 1;" vector-effect="non-scaling-stroke"  transform=" translate(-2220.74, -3451.98)" d="M 1940 3514 C 1899 3496 1856 3458 1828 3412 C 1798 3363 1815 3361 1863 3408 C 1937 3480 1941 3481 2297 3480 C 2498 3479 2616 3482 2623 3489 C 2628 3494 2630 3506 2627 3514 C 2621 3528 2582 3530 2298 3530 C 2032 3529 1969 3527 1940 3514 z" stroke-linecap="round" />
</g>
		<g transform="matrix(0.13 0 0 -0.13 -166.32 -126.29)"  >
<path style="stroke: none; stroke-width: 1; stroke-dasharray: none; stroke-linecap: butt; stroke-dashoffset: 0; stroke-linejoin: miter; stroke-miterlimit: 4; fill: rgb(255,0,0); fill-rule: nonzero; opacity: 1;" vector-effect="non-scaling-stroke"  transform=" translate(-1250.08, -3446.96)" d="M 1233 3473 C 1214 3466 1217 3423 1236 3416 C 1256 3408 1280 3427 1280 3450 C 1280 3464 1257 3484 1247 3479 C 1246 3479 1239 3476 1233 3473 z" stroke-linecap="round" />
</g>
		<g transform="matrix(0.13 0 0 -0.13 -127.11 -75.69)"  >
<path style="stroke: none; stroke-width: 1; stroke-dasharray: none; stroke-linecap: butt; stroke-dashoffset: 0; stroke-linejoin: miter; stroke-miterlimit: 4; fill: rgb(255,0,0); fill-rule: nonzero; opacity: 1;" vector-effect="non-scaling-stroke"  transform=" translate(-1544.16, -3067.45)" d="M 1363 3439 C 1314 3408 1286 3357 1295 3312 C 1306 3246 1318 3029 1319 2853 C 1320 2750 1324 2679 1330 2675 C 1337 2671 1340 2782 1340 3000 L 1340 3331 L 1365 3354 C 1398 3385 1428 3390 1569 3390 C 1684 3390 1686 3391 1740 3425 L 1795 3460 L 1595 3460 C 1410 3460 1393 3458 1363 3439 z" stroke-linecap="round" />
</g>
		<g transform="matrix(0.13 0 0 -0.13 128.67 -80.69)"  >
<path style="stroke: none; stroke-width: 1; stroke-dasharray: none; stroke-linecap: butt; stroke-dashoffset: 0; stroke-linejoin: miter; stroke-miterlimit: 4; fill: rgb(255,0,0); fill-rule: nonzero; opacity: 1;" vector-effect="non-scaling-stroke"  transform=" translate(-3462.52, -3104.98)" d="M 3320 3450 L 3005 3445 L 3035 3425 C 3062 3406 3085 3405 3411 3400 C 3742 3395 3760 3394 3786 3374 C 3855 3323 3854 3326 3860 3027 C 3865 2756 3865 2755 3887 2752 C 3921 2747 3923 2774 3918 3054 C 3912 3334 3911 3339 3842 3402 C 3800 3440 3729 3462 3667 3458 C 3649 3456 3493 3453 3320 3450 z" stroke-linecap="round" />
</g>
		<g transform="matrix(0.13 0 0 -0.13 -64.9 -71.2)"  >
<path style="stroke: none; stroke-width: 1; stroke-dasharray: none; stroke-linecap: butt; stroke-dashoffset: 0; stroke-linejoin: miter; stroke-miterlimit: 4; fill: rgb(255,0,0); fill-rule: nonzero; opacity: 1;" vector-effect="non-scaling-stroke"  transform=" translate(-2010.7, -3033.79)" d="M 1951 3297 C 1943 3286 1940 3211 1942 3024 L 1945 2765 L 2013 2762 L 2080 2759 L 2078 3032 L 2075 3305 L 2019 3308 C 1980 3310 1960 3307 1951 3297 z" stroke-linecap="round" />
</g>
		<g transform="matrix(0.13 0 0 -0.13 3.02 -75.93)"  >
<path style="stroke: none; stroke-width: 1; stroke-dasharray: none; stroke-linecap: butt; stroke-dashoffset: 0; stroke-linejoin: miter; stroke-miterlimit: 4; fill: rgb(255,0,0); fill-rule: nonzero; opacity: 1;" vector-effect="non-scaling-stroke"  transform=" translate(-2520.14, -3069.25)" d="M 2352 3298 C 2337 3283 2335 2879 2350 2849 C 2360 2832 2373 2830 2515 2830 C 2599 2830 2675 2833 2684 2836 C 2708 2845 2705 2907 2681 2920 C 2670 2925 2623 2930 2576 2930 L 2490 2930 L 2488 3118 L 2485 3305 L 2425 3308 C 2387 3310 2360 3306 2352 3298 z" stroke-linecap="round" />
</g>
		<g transform="matrix(0.13 0 0 -0.13 63.67 -66.03)"  >
<path style="stroke: none; stroke-width: 1; stroke-dasharray: none; stroke-linecap: butt; stroke-dashoffset: 0; stroke-linejoin: miter; stroke-miterlimit: 4; fill: rgb(255,0,0); fill-rule: nonzero; opacity: 1;" vector-effect="non-scaling-stroke"  transform=" translate(-2975, -2995)" d="M 2763 3293 C 2758 3281 2780 3230 2828 3138 L 2900 3000 L 2825 2857 C 2784 2778 2750 2706 2750 2696 C 2750 2682 2759 2679 2813 2682 L 2875 2685 L 2924 2779 L 2974 2872 L 3013 2794 C 3068 2684 3072 2680 3142 2680 C 3194 2680 3200 2682 3200 2701 C 3200 2719 3157 2806 3078 2947 L 3050 2998 L 3119 3139 C 3158 3217 3187 3287 3183 3295 C 3180 3306 3162 3310 3125 3310 C 3064 3310 3057 3304 3008 3207 L 2974 3138 L 2929 3222 L 2885 3305 L 2827 3308 C 2780 3310 2769 3308 2763 3293 z" stroke-linecap="round" />
</g>
		<g transform="matrix(0.13 0 0 -0.13 123.67 -65.4)"  >
<path style="stroke: none; stroke-width: 1; stroke-dasharray: none; stroke-linecap: butt; stroke-dashoffset: 0; stroke-linejoin: miter; stroke-miterlimit: 4; fill: rgb(255,0,0); fill-rule: nonzero; opacity: 1;" vector-effect="non-scaling-stroke"  transform=" translate(-3424.99, -2990.31)" d="M 3224 3296 C 3221 3288 3251 3218 3290 3141 L 3362 3001 L 3321 2933 L 3280 2865 L 3337 2860 L 3394 2855 L 3435 2779 C 3457 2736 3481 2695 3489 2686 C 3512 2659 3620 2670 3620 2700 C 3620 2705 3588 2769 3549 2842 C 3511 2915 3479 2982 3478 2990 C 3478 2998 3512 3068 3554 3144 C 3596 3220 3629 3289 3626 3296 C 3622 3305 3604 3310 3572 3310 C 3516 3310 3510 3304 3460 3217 C 3443 3185 3426 3160 3424 3163 C 3422 3165 3403 3198 3383 3236 L 3345 3305 L 3287 3308 C 3243 3310 3228 3307 3224 3296 z" stroke-linecap="round" />
</g>
		<g transform="matrix(0.13 0 0 -0.13 -22.35 -38.75)"  >
<path style="stroke: none; stroke-width: 1; stroke-dasharray: none; stroke-linecap: butt; stroke-dashoffset: 0; stroke-linejoin: miter; stroke-miterlimit: 4; fill: rgb(255,0,0); fill-rule: nonzero; opacity: 1;" vector-effect="non-scaling-stroke"  transform=" translate(-2329.87, -2790.38)" d="M 1422 3288 C 1413 3279 1410 3192 1410 2959 C 1410 2646 1410 2643 1433 2609 C 1445 2590 1476 2564 1500 2550 C 1544 2526 1551 2525 1803 2520 L 2062 2515 L 2091 2482 C 2127 2442 2127 2426 2095 2394 C 2059 2358 2026 2365 2020 2409 C 2016 2437 2009 2445 1987 2451 C 1942 2463 1919 2448 1899 2394 C 1875 2333 1875 2317 1898 2297 C 1915 2282 1972 2280 2516 2280 L 3116 2280 L 3160 2303 C 3221 2334 3243 2368 3248 2439 C 3252 2491 3250 2499 3232 2509 C 3217 2517 3062 2519 2713 2518 L 2215 2515 L 2190 2477 L 2166 2438 L 2157 2467 C 2152 2482 2138 2506 2126 2518 C 2082 2568 2067 2570 1811 2570 L 1571 2570 L 1561 2608 C 1555 2628 1550 2725 1550 2823 L 1550 3000 L 1655 3000 C 1750 3000 1760 3002 1770 3021 C 1776 3032 1780 3051 1778 3063 C 1775 3084 1770 3085 1669 3088 L 1562 3091 L 1556 3122 C 1542 3194 1535 3190 1693 3190 C 1849 3190 1860 3194 1860 3245 C 1860 3262 1855 3281 1848 3288 C 1831 3305 1439 3305 1422 3288 z M 2800 2420 L 2800 2379 L 2703 2382 C 2610 2385 2605 2386 2602 2408 C 2599 2430 2597 2430 2434 2430 C 2295 2430 2270 2432 2270 2445 C 2270 2458 2306 2460 2535 2460 L 2800 2460 L 2800 2420 z M 2507 2384 C 2504 2381 2495 2380 2488 2383 C 2480 2386 2483 2389 2494 2389 C 2505 2390 2511 2387 2507 2384 z M 2805 2330 C 2797 2318 2334 2317 2275 2329 C 2250 2335 2343 2338 2523 2339 C 2713 2340 2809 2337 2805 2330 z" stroke-linecap="round" />
</g>
		<g transform="matrix(0.13 0 0 -0.13 -238.67 -38.58)"  >
<path style="stroke: none; stroke-width: 1; stroke-dasharray: none; stroke-linecap: butt; stroke-dashoffset: 0; stroke-linejoin: miter; stroke-miterlimit: 4; fill: rgb(255,0,0); fill-rule: nonzero; opacity: 1;" vector-effect="non-scaling-stroke"  transform=" translate(-707.46, -2789.13)" d="M 724 2951 C 597 2874 608 2679 743 2625 L 780 2610 L 780 2790 C 780 2986 780 2985 724 2951 z M 740 2906 C 740 2889 726 2877 717 2886 C 709 2894 720 2920 731 2920 C 736 2920 740 2914 740 2906 z" stroke-linecap="round" />
</g>
		<g transform="matrix(0.13 0 0 -0.13 -6.59 -32.03)"  >
<path style="stroke: none; stroke-width: 1; stroke-dasharray: none; stroke-linecap: butt; stroke-dashoffset: 0; stroke-linejoin: miter; stroke-miterlimit: 4; fill: rgb(255,0,0); fill-rule: nonzero; opacity: 1;" vector-effect="non-scaling-stroke"  transform=" translate(-2448.06, -2740)" d="M 2212 2784 C 2183 2764 2181 2705 2209 2690 C 2221 2684 2316 2680 2449 2680 C 2660 2680 2671 2681 2691 2701 C 2706 2716 2710 2729 2705 2748 C 2693 2798 2682 2800 2450 2800 C 2271 2800 2231 2797 2212 2784 z" stroke-linecap="round" />
</g>
		<g transform="matrix(0.13 0 0 -0.13 100.37 -30.64)"  >
<path style="stroke: none; stroke-width: 1; stroke-dasharray: none; stroke-linecap: butt; stroke-dashoffset: 0; stroke-linejoin: miter; stroke-miterlimit: 4; fill: rgb(255,0,0); fill-rule: nonzero; opacity: 1;" vector-effect="non-scaling-stroke"  transform=" translate(-3250.28, -2729.55)" d="M 3234 2741 C 3210 2704 3208 2680 3230 2680 C 3245 2680 3293 2758 3285 2769 C 3274 2788 3261 2781 3234 2741 z" stroke-linecap="round" />
</g>
		<g transform="matrix(0.13 0 0 -0.13 168.6 -12.62)"  >
<path style="stroke: none; stroke-width: 1; stroke-dasharray: none; stroke-linecap: butt; stroke-dashoffset: 0; stroke-linejoin: miter; stroke-miterlimit: 4; fill: rgb(255,0,0); fill-rule: nonzero; opacity: 1;" vector-effect="non-scaling-stroke"  transform=" translate(-3761.99, -2594.41)" d="M 3862 2631 C 3864 2590 3860 2576 3842 2557 C 3822 2538 3807 2535 3713 2532 C 3589 2528 3591 2510 3715 2510 C 3837 2510 3896 2549 3902 2635 C 3905 2670 3902 2675 3882 2678 C 3861 2681 3860 2678 3862 2631 z" stroke-linecap="round" />
</g>
		<g transform="matrix(0.13 0 0 -0.13 15.26 -12.77)"  >
<path style="stroke: none; stroke-width: 1; stroke-dasharray: none; stroke-linecap: butt; stroke-dashoffset: 0; stroke-linejoin: miter; stroke-miterlimit: 4; fill: rgb(255,0,0); fill-rule: nonzero; opacity: 1;" vector-effect="non-scaling-stroke"  transform=" translate(-2611.95, -2595.52)" d="M 1836 2601 C 1827 2587 2270 2578 2849 2582 C 3265 2584 3384 2588 3388 2598 C 3391 2607 3232 2610 2616 2610 C 2176 2610 1839 2606 1836 2601 z" stroke-linecap="round" />
</g>
		<g transform="matrix(0.13 0 0 -0.13 -146.33 30.58)"  >
<path style="stroke: none; stroke-width: 1; stroke-dasharray: none; stroke-linecap: butt; stroke-dashoffset: 0; stroke-linejoin: miter; stroke-miterlimit: 4; fill: rgb(255,0,0); fill-rule: nonzero; opacity: 1;" vector-effect="non-scaling-stroke"  transform=" translate(-1400, -2270.45)" d="M 1040 2379 C 1040 2357 1106 2278 1151 2245 C 1261 2164 1350 2145 1588 2155 C 1725 2161 1760 2165 1760 2176 C 1760 2187 1727 2190 1580 2190 C 1482 2190 1377 2195 1348 2201 C 1260 2219 1176 2265 1111 2330 C 1050 2391 1040 2398 1040 2379 z" stroke-linecap="round" />
</g>
		<g transform="matrix(0.13 0 0 -0.13 162.93 39.88)"  >
<path style="stroke: none; stroke-width: 1; stroke-dasharray: none; stroke-linecap: butt; stroke-dashoffset: 0; stroke-linejoin: miter; stroke-miterlimit: 4; fill: rgb(255,0,0); fill-rule: nonzero; opacity: 1;" vector-effect="non-scaling-stroke"  transform=" translate(-3719.44, -2200.69)" d="M 3620 2345 C 3612 2335 3590 2330 3560 2330 C 3482 2330 3460 2311 3496 2276 C 3508 2263 3536 2260 3639 2260 C 3754 2260 3770 2258 3794 2239 C 3818 2220 3820 2213 3820 2140 C 3820 2070 3823 2059 3840 2050 C 3890 2023 3910 2058 3910 2175 C 3910 2231 3913 2239 3935 2254 C 3966 2274 3968 2312 3940 2340 C 3922 2358 3907 2360 3776 2360 C 3661 2360 3630 2357 3620 2345 z" stroke-linecap="round" />
</g>
		<g transform="matrix(0.13 0 0 -0.13 -60.33 80.7)"  >
<path style="stroke: none; stroke-width: 1; stroke-dasharray: none; stroke-linecap: butt; stroke-dashoffset: 0; stroke-linejoin: miter; stroke-miterlimit: 4; fill: rgb(255,0,0); fill-rule: nonzero; opacity: 1;" vector-effect="non-scaling-stroke"  transform=" translate(-2045, -1894.5)" d="M 1900 2065 C 1900 2055 1911 2050 1938 2049 L 1975 2047 L 1940 2041 L 1905 2035 L 1905 1875 L 1905 1715 L 1938 1712 L 1970 1709 L 1971 1817 L 1972 1925 L 1992 1853 C 2009 1793 2017 1781 2038 1775 C 2069 1767 2074 1773 2091 1835 L 2105 1885 L 2110 1800 L 2115 1715 L 2150 1715 L 2185 1715 L 2185 1875 L 2185 2035 L 2155 2041 L 2125 2048 L 2158 2049 C 2179 2050 2190 2055 2190 2065 C 2190 2076 2178 2080 2141 2080 L 2092 2080 L 2071 2011 C 2059 1973 2050 1937 2050 1930 C 2050 1900 2031 1936 2011 2005 L 1988 2080 L 1944 2080 C 1912 2080 1900 2076 1900 2065 z" stroke-linecap="round" />
</g>
		<g transform="matrix(0.13 0 0 -0.13 -19.09 80.74)"  >
<path style="stroke: none; stroke-width: 1; stroke-dasharray: none; stroke-linecap: butt; stroke-dashoffset: 0; stroke-linejoin: miter; stroke-miterlimit: 4; fill: rgb(255,0,0); fill-rule: nonzero; opacity: 1;" vector-effect="non-scaling-stroke"  transform=" translate(-2354.29, -1894.25)" d="M 2315 2068 C 2313 2061 2293 1999 2271 1930 C 2250 1861 2227 1792 2221 1777 C 2201 1725 2206 1710 2245 1710 C 2274 1710 2281 1714 2286 1735 C 2292 1758 2297 1760 2346 1760 C 2394 1760 2402 1757 2412 1735 C 2421 1715 2430 1710 2462 1710 C 2486 1710 2500 1715 2499 1723 C 2499 1729 2473 1812 2442 1905 L 2385 2075 L 2352 2078 C 2332 2080 2318 2076 2315 2068 z M 2372 1875 L 2387 1820 L 2350 1820 L 2313 1820 L 2329 1875 C 2338 1905 2348 1930 2351 1930 C 2354 1930 2364 1905 2372 1875 z" stroke-linecap="round" />
</g>
		<g transform="matrix(0.13 0 0 -0.13 11.6 80.7)"  >
<path style="stroke: none; stroke-width: 1; stroke-dasharray: none; stroke-linecap: butt; stroke-dashoffset: 0; stroke-linejoin: miter; stroke-miterlimit: 4; fill: rgb(255,0,0); fill-rule: nonzero; opacity: 1;" vector-effect="non-scaling-stroke"  transform=" translate(-2584.5, -1894.5)" d="M 2452 2053 C 2455 2028 2459 2025 2498 2022 L 2540 2019 L 2540 1864 L 2540 1709 L 2583 1712 L 2625 1715 L 2628 1868 L 2631 2020 L 2675 2020 C 2718 2020 2720 2021 2720 2050 L 2720 2080 L 2584 2080 L 2449 2080 L 2452 2053 z" stroke-linecap="round" />
</g>
		<g transform="matrix(0.13 0 0 -0.13 37.67 80.64)"  >
<path style="stroke: none; stroke-width: 1; stroke-dasharray: none; stroke-linecap: butt; stroke-dashoffset: 0; stroke-linejoin: miter; stroke-miterlimit: 4; fill: rgb(255,0,0); fill-rule: nonzero; opacity: 1;" vector-effect="non-scaling-stroke"  transform=" translate(-2780, -1895)" d="M 2740 1895 L 2740 1710 L 2780 1710 L 2820 1710 L 2820 1895 L 2820 2080 L 2780 2080 L 2740 2080 L 2740 1895 z" stroke-linecap="round" />
</g>
		<g transform="matrix(0.13 0 0 -0.13 117.67 81.19)"  >
<path style="stroke: none; stroke-width: 1; stroke-dasharray: none; stroke-linecap: butt; stroke-dashoffset: 0; stroke-linejoin: miter; stroke-miterlimit: 4; fill: rgb(255,0,0); fill-rule: nonzero; opacity: 1;" vector-effect="non-scaling-stroke"  transform=" translate(-3380, -1890.87)" d="M 2840 2074 C 2840 2070 2863 2030 2891 1984 L 2943 1900 L 2891 1816 C 2863 1770 2840 1727 2840 1721 C 2840 1715 2856 1710 2878 1710 C 2913 1710 2918 1714 2955 1775 C 2977 1810 2997 1839 3000 1839 C 3003 1839 3021 1811 3040 1777 L 3075 1715 L 3170 1707 C 3222 1703 3380 1701 3520 1702 C 3801 1705 3804 1706 3867 1772 C 3908 1815 3920 1848 3920 1921 C 3920 1965 3916 1980 3906 1980 C 3896 1980 3889 1963 3885 1925 C 3876 1860 3849 1814 3800 1786 C 3768 1767 3746 1765 3520 1762 C 3385 1760 3244 1763 3206 1767 L 3138 1775 L 3089 1851 L 3040 1927 L 3080 1996 C 3102 2034 3120 2068 3120 2072 C 3120 2077 3105 2080 3086 2080 C 3055 2080 3049 2075 3022 2029 L 2993 1978 L 2957 2029 C 2923 2076 2917 2080 2880 2080 C 2858 2080 2840 2077 2840 2074 z" stroke-linecap="round" />
</g>
		<g transform="matrix(0.13 0 0 -0.13 95.25 60.89)"  >
<path style="stroke: none; stroke-width: 1; stroke-dasharray: none; stroke-linecap: butt; stroke-dashoffset: 0; stroke-linejoin: miter; stroke-miterlimit: 4; fill: rgb(255,0,0); fill-rule: nonzero; opacity: 1;" vector-effect="non-scaling-stroke"  transform=" translate(-3211.85, -2043.11)" d="M 3146 2071 C 3137 2057 3156 2014 3174 2007 C 3183 2003 3202 2011 3217 2024 C 3233 2036 3253 2049 3263 2053 C 3272 2056 3280 2064 3280 2070 C 3280 2083 3153 2084 3146 2071 z" stroke-linecap="round" />
</g>
		<g transform="matrix(0.13 0 0 -0.13 246.15 64.74)"  >
<path style="stroke: none; stroke-width: 1; stroke-dasharray: none; stroke-linecap: butt; stroke-dashoffset: 0; stroke-linejoin: miter; stroke-miterlimit: 4; fill: rgb(255,0,0); fill-rule: nonzero; opacity: 1;" vector-effect="non-scaling-stroke"  transform=" translate(-4343.63, -2014.22)" d="M 4330 2016 C 4330 2007 4337 2000 4346 2000 C 4363 2000 4360 2022 4342 2028 C 4335 2030 4330 2025 4330 2016 z" stroke-linecap="round" />
</g>
		<g transform="matrix(0.13 0 0 -0.13 -210.19 77.17)"  >
<path style="stroke: none; stroke-width: 1; stroke-dasharray: none; stroke-linecap: butt; stroke-dashoffset: 0; stroke-linejoin: miter; stroke-miterlimit: 4; fill: rgb(255,0,0); fill-rule: nonzero; opacity: 1;" vector-effect="non-scaling-stroke"  transform=" translate(-921.07, -1920.99)" d="M 846 1980 C 864 1913 889 1886 963 1855 C 998 1840 1000 1841 1000 1859 C 1000 1872 991 1880 970 1885 C 939 1892 900 1924 862 1975 C 840 2004 839 2004 846 1980 z" stroke-linecap="round" />
</g>
		<g transform="matrix(0.13 0 0 -0.13 93.34 83.3)"  >
<path style="stroke: none; stroke-width: 1; stroke-dasharray: none; stroke-linecap: butt; stroke-dashoffset: 0; stroke-linejoin: miter; stroke-miterlimit: 4; fill: rgb(255,0,0); fill-rule: nonzero; opacity: 1;" vector-effect="non-scaling-stroke"  transform=" translate(-3197.5, -1875)" d="M 3140 1875 C 3140 1850 3141 1849 3198 1852 C 3247 1855 3255 1858 3255 1875 C 3255 1892 3247 1895 3198 1898 C 3141 1901 3140 1900 3140 1875 z" stroke-linecap="round" />
</g>
		<g transform="matrix(0.13 0 0 -0.13 -214.44 111.83)"  >
<path style="stroke: none; stroke-width: 1; stroke-dasharray: none; stroke-linecap: butt; stroke-dashoffset: 0; stroke-linejoin: miter; stroke-miterlimit: 4; fill: rgb(255,0,0); fill-rule: nonzero; opacity: 1;" vector-effect="non-scaling-stroke"  transform=" translate(-889.19, -1661.07)" d="M 874 1669 C 864 1652 887 1633 901 1647 C 913 1659 905 1680 890 1680 C 885 1680 878 1675 874 1669 z" stroke-linecap="round" />
</g>
		<g transform="matrix(0.13 0 0 -0.13 -183.77 113.43)"  >
<path style="stroke: none; stroke-width: 1; stroke-dasharray: none; stroke-linecap: butt; stroke-dashoffset: 0; stroke-linejoin: miter; stroke-miterlimit: 4; fill: rgb(255,0,0); fill-rule: nonzero; opacity: 1;" vector-effect="non-scaling-stroke"  transform=" translate(-1119.19, -1649.08)" d="M 1107 1664 C 1093 1649 1101 1630 1121 1630 C 1135 1630 1140 1635 1138 1647 C 1135 1665 1118 1674 1107 1664 z" stroke-linecap="round" />
</g>
		<g transform="matrix(0.13 0 0 -0.13 140.18 125.3)"  >
<path style="stroke: none; stroke-width: 1; stroke-dasharray: none; stroke-linecap: butt; stroke-dashoffset: 0; stroke-linejoin: miter; stroke-miterlimit: 4; fill: rgb(255,0,0); fill-rule: nonzero; opacity: 1;" vector-effect="non-scaling-stroke"  transform=" translate(-3548.84, -1560)" d="M 3299 1630 C 3290 1625 3277 1607 3270 1590 C 3255 1555 3270 1506 3301 1490 C 3311 1484 3421 1480 3549 1480 C 3776 1480 3779 1480 3806 1503 C 3841 1534 3843 1580 3810 1615 L 3787 1640 L 3551 1640 C 3421 1640 3308 1635 3299 1630 z M 3766 1586 C 3781 1574 3783 1568 3774 1553 C 3764 1537 3744 1535 3544 1535 C 3336 1535 3325 1536 3322 1554 C 3314 1594 3343 1600 3550 1600 C 3705 1600 3750 1597 3766 1586 z" stroke-linecap="round" />
</g>
		<g transform="matrix(0.13 0 0 -0.13 -135.5 140.79)"  >
<path style="stroke: none; stroke-width: 1; stroke-dasharray: none; stroke-linecap: butt; stroke-dashoffset: 0; stroke-linejoin: miter; stroke-miterlimit: 4; fill: rgb(255,0,0); fill-rule: nonzero; opacity: 1;" vector-effect="non-scaling-stroke"  transform=" translate(-1481.21, -1443.82)" d="M 1120 1591 C 1120 1566 1171 1482 1212 1439 C 1271 1379 1339 1333 1408 1307 C 1459 1288 1484 1286 1649 1288 C 1750 1289 1834 1291 1836 1292 C 1837 1294 1840 1303 1842 1314 C 1845 1331 1836 1332 1685 1331 C 1500 1329 1427 1339 1352 1376 C 1289 1407 1203 1488 1169 1549 C 1146 1592 1120 1614 1120 1591 z" stroke-linecap="round" />
</g>
		<g transform="matrix(0.13 0 0 -0.13 31.03 130.2)"  >
<path style="stroke: none; stroke-width: 1; stroke-dasharray: none; stroke-linecap: butt; stroke-dashoffset: 0; stroke-linejoin: miter; stroke-miterlimit: 4; fill: rgb(255,0,0); fill-rule: nonzero; opacity: 1;" vector-effect="non-scaling-stroke"  transform=" translate(-2730.18, -1523.25)" d="M 2493 1523 C 2623 1521 2837 1521 2968 1523 C 3098 1524 2991 1525 2730 1525 C 2469 1525 2362 1524 2493 1523 z" stroke-linecap="round" />
</g>
		<g transform="matrix(0.13 0 0 -0.13 -73.74 157.93)"  >
<path style="stroke: none; stroke-width: 1; stroke-dasharray: none; stroke-linecap: butt; stroke-dashoffset: 0; stroke-linejoin: miter; stroke-miterlimit: 4; fill: rgb(255,0,0); fill-rule: nonzero; opacity: 1;" vector-effect="non-scaling-stroke"  transform=" translate(-1944.47, -1315.32)" d="M 1891 1331 C 1883 1326 1880 1315 1883 1306 C 1888 1294 1903 1290 1944 1290 C 2001 1290 2014 1297 2004 1324 C 1997 1342 1916 1347 1891 1331 z" stroke-linecap="round" />
</g>
		<g transform="matrix(0.13 0 0 -0.13 163.67 173.97)"  >
<path style="stroke: none; stroke-width: 1; stroke-dasharray: none; stroke-linecap: butt; stroke-dashoffset: 0; stroke-linejoin: miter; stroke-miterlimit: 4; fill: rgb(255,0,0); fill-rule: nonzero; opacity: 1;" vector-effect="non-scaling-stroke"  transform=" translate(-3725, -1195)" d="M 3630 1201 C 3630 1138 3632 1132 3653 1126 C 3682 1118 3749 1118 3789 1126 L 3820 1133 L 3820 1201 L 3820 1270 L 3725 1270 L 3630 1270 L 3630 1201 z" stroke-linecap="round" />
</g>
		<g transform="matrix(0.13 0 0 -0.13 -2.89 175.3)"  >
<path style="stroke: none; stroke-width: 1; stroke-dasharray: none; stroke-linecap: butt; stroke-dashoffset: 0; stroke-linejoin: miter; stroke-miterlimit: 4; fill: rgb(255,0,0); fill-rule: nonzero; opacity: 1;" vector-effect="non-scaling-stroke"  transform=" translate(-2475.83, -1185)" d="M 2157 1213 C 2145 1202 2149 1182 2166 1166 C 2179 1152 2222 1150 2480 1150 C 2766 1150 2780 1151 2790 1169 C 2817 1221 2825 1220 2482 1220 C 2307 1220 2160 1217 2157 1213 z" stroke-linecap="round" />
</g>
		<g transform="matrix(0.13 0 0 -0.13 187.74 174.63)"  >
<path style="stroke: none; stroke-width: 1; stroke-dasharray: none; stroke-linecap: butt; stroke-dashoffset: 0; stroke-linejoin: miter; stroke-miterlimit: 4; fill: rgb(255,0,0); fill-rule: nonzero; opacity: 1;" vector-effect="non-scaling-stroke"  transform=" translate(-3905.57, -1190.02)" d="M 3885 1200 C 3881 1193 3882 1184 3888 1178 C 3902 1164 3933 1176 3928 1193 C 3922 1209 3894 1214 3885 1200 z" stroke-linecap="round" />
</g>
		<g transform="matrix(0.13 0 0 -0.13 7.33 193.98)"  >
<path style="stroke: none; stroke-width: 1; stroke-dasharray: none; stroke-linecap: butt; stroke-dashoffset: 0; stroke-linejoin: miter; stroke-miterlimit: 4; fill: rgb(255,0,0); fill-rule: nonzero; opacity: 1;" vector-effect="non-scaling-stroke"  transform=" translate(-2552.43, -1044.89)" d="M 2335 1118 C 2337 1111 2348 1072 2360 1033 L 2381 960 L 2540 960 C 2722 960 2702 950 2746 1066 L 2770 1130 L 2550 1130 C 2379 1130 2332 1127 2335 1118 z" stroke-linecap="round" />
</g>
		<g transform="matrix(0.13 0 0 -0.13 108.34 185.98)"  >
<path style="stroke: none; stroke-width: 1; stroke-dasharray: none; stroke-linecap: butt; stroke-dashoffset: 0; stroke-linejoin: miter; stroke-miterlimit: 4; fill: rgb(255,0,0); fill-rule: nonzero; opacity: 1;" vector-effect="non-scaling-stroke"  transform=" translate(-3310, -1104.91)" d="M 3250 1122 C 3250 1117 3258 1106 3268 1097 C 3288 1078 3370 1073 3370 1090 C 3370 1096 3352 1100 3330 1100 C 3303 1100 3287 1105 3284 1115 C 3278 1131 3250 1136 3250 1122 z" stroke-linecap="round" />
</g>
		<g transform="matrix(0.13 0 0 -0.13 79.65 193.95)"  >
<path style="stroke: none; stroke-width: 1; stroke-dasharray: none; stroke-linecap: butt; stroke-dashoffset: 0; stroke-linejoin: miter; stroke-miterlimit: 4; fill: rgb(255,0,0); fill-rule: nonzero; opacity: 1;" vector-effect="non-scaling-stroke"  transform=" translate(-3094.86, -1045.14)" d="M 3045 1095 C 3002 1053 3022 989 3082 974 C 3104 969 3116 974 3141 999 C 3166 1024 3171 1036 3166 1058 C 3151 1118 3087 1138 3045 1095 z" stroke-linecap="round" />
</g>
</g>
</g>
</svg>